# xmcd
#
# Track frame offsets:
#	150
#	12406
#	37175
#
# Disc length: 705 seconds
#
# Revision: 0
# Processed by: cddbd v1.5.2PL0 Copyright (c) Steve Scherf et al.
# Submitted via: audiograbber 1.83.01
#
DISCID=2002bf03
DTITLE=Unterbrunner Haderlumpen - A echter Bayer
DYEAR=2000
DGENRE=Volksmusik
TTITLE0=A echer Bayer
TTITLE1=Golden Unterbrunner Mix
TTITLE2=Anton aus Tirol
EXTD=<http://www.hit-radio24.de>
EXTT0=
EXTT1=
EXTT2=
PLAYORDER=
